<svg xmlns="http://www.w3.org/2000/svg" width="360" height="314.017" viewBox="0 0 360 314.017"><defs><style>.a{fill:#fafafa;}.b{fill:#e0e0e0;}.c{fill:#ff725e;}.d{opacity:0.5;}.aa,.e{opacity:0.4;}.f,.r{opacity:0.3;}.g{fill:#37474f;}.h{fill:#263238;}.aa,.i,.r,.v,.x,.y{fill:#fff;}.i{opacity:0.75;}.j{opacity:0.15;}.k,.z{opacity:0.1;}.l{fill:#ffa8a7;}.m{fill:#455a64;}.n{fill:#f28f8f;}.o{fill:#b16668;}.p{fill:#f5f5f5;}.q{opacity:0.2;}.s{fill:#9a4a4d;}.t{opacity:0.35;}.u{fill:#ebebeb;}.v{opacity:0.6;}.w{opacity:0.05;}.x{opacity:0.85;}.y{opacity:0.7;}</style></defs><g transform="translate(-6.29 -48.469)"><g transform="translate(6.29 145.106)"><ellipse class="a" cx="180" cy="108.69" rx="180" ry="108.69"/></g><g transform="translate(15.274 156.053)"><path class="b" d="M19.743,318.388l160.125,92.456a6.884,6.884,0,0,0,6.219,0l84.2-48.613c1.721-1,1.721-2.6,0-3.6l-160.11-92.456a6.9,6.9,0,0,0-6.226,0L19.751,314.8C18.023,315.788,18.023,317.4,19.743,318.388Z" transform="translate(-18.454 -212.772)"/><path class="b" d="M237.547,205.842c6.44,3.759,6.44,9.853,0,13.612s-16.877,3.759-23.317,0-6.44-9.853,0-13.612S231.107,202.083,237.547,205.842Z" transform="translate(-68.37 -196.456)"/><path class="b" d="M400.113,253.2,298.676,194.625a4.018,4.018,0,0,0-3.745-.059l-56.435,32.7a1.15,1.15,0,0,0,0,2.179l24.418,14.07L241.8,257.76c-6.765,4.557-8.22,10.584-3.25,13.45s16.64,3.073,23.952-.547l24.2-13.427,10.133,5.85,42.912,24.8a4.2,4.2,0,0,0,3.774,0l56.59-32.5C401.125,254.827,401.139,253.86,400.113,253.2Z" transform="translate(-75.22 -194.132)"/></g><g transform="translate(22.029 127.89)"><g transform="translate(0 75.04)"><path class="c" d="M263.969,358.5l-74.449,42.978a7.991,7.991,0,0,1-7.762.14L31.876,315.077c-2.363-1.359-4.276-4.431-4.276-6.81s1.913-5.443,4.269-6.81l74.176-42.838a9.469,9.469,0,0,1,8.545,0l149.378,86.259c2.363,1.366,4.276,4.431,4.276,6.81S266.332,357.139,263.969,358.5Z" transform="translate(-27.6 -257.601)"/><path class="d" d="M106.045,258.643,31.869,301.481c-2.356,1.366-4.276,4.431-4.269,6.81a8.971,8.971,0,0,0,4.269,6.81l149.888,86.525a8.177,8.177,0,0,0,3.693.923V299.568l-70.9-40.925a9.469,9.469,0,0,0-8.5,0Z" transform="translate(-27.6 -257.61)"/><path class="e" d="M245.4,416.327l74.449-42.978c2.363-1.359,4.276-4.432,4.276-6.81s-1.913-5.443-4.276-6.81l-78.5-45.319V417.391a7.874,7.874,0,0,0,4.047-1.064Z" transform="translate(-83.478 -272.452)"/><path class="c" d="M188.413,393.8a8.368,8.368,0,0,1-7.541,0L32.513,308.124c-3.191-1.846-3.191-4.86,0-6.7L106.7,258.639a9.483,9.483,0,0,1,8.553,0L264.62,344.884c2.356,1.359,2.356,3.582,0,4.934Z" transform="translate(-28.259 -257.606)"/><path class="f" d="M188.413,393.8a8.368,8.368,0,0,1-7.541,0L32.513,308.124c-3.191-1.846-3.191-4.86,0-6.7L106.7,258.639a9.483,9.483,0,0,1,8.553,0L264.62,344.884c2.356,1.359,2.356,3.582,0,4.934Z" transform="translate(-28.259 -257.606)"/><path class="g" d="M186.033,388a8.952,8.952,0,0,1-8.124,0L50.252,314.3c-2.216-1.293-2.216-3.4,0-4.69l69.781-40.29a9.055,9.055,0,0,1,8.124,0l127.657,73.7c2.216,1.292,2.216,3.4,0,4.7Z" transform="translate(-33.087 -260.413)"/><path class="h" d="M123.852,268.37a8.272,8.272,0,0,0-3.818.953l-69.781,40.29c-2.216,1.292-2.216,3.4,0,4.69l13.834,7.984,59.766-38.163Z" transform="translate(-33.087 -260.416)"/><path class="c" d="M128.439,273.449a9.04,9.04,0,0,0-8.124,0l-69.789,40.29a4.218,4.218,0,0,0-1.056.849,4.049,4.049,0,0,0,1.012.79l127.657,73.7a8.951,8.951,0,0,0,8.124,0L256.052,348.8a4.293,4.293,0,0,0,1.049-.842,4.07,4.07,0,0,0-1-.805Z" transform="translate(-33.317 -261.492)"/><path class="i" d="M128.439,273.449a9.04,9.04,0,0,0-8.124,0l-69.789,40.29a4.218,4.218,0,0,0-1.056.849,4.049,4.049,0,0,0,1.012.79l127.657,73.7a8.951,8.951,0,0,0,8.124,0L256.052,348.8a4.293,4.293,0,0,0,1.049-.842,4.07,4.07,0,0,0-1-.805Z" transform="translate(-33.317 -261.492)"/><path class="g" d="M84.289,295.541l12.371-7.164c.739-.428.739-1.093.081-1.477a2.851,2.851,0,0,0-2.585.052L81.8,294.093c-.739.421-.739,1.093-.081,1.477a2.873,2.873,0,0,0,2.57-.03Z" transform="translate(-41.621 -265.185)"/><path class="g" d="M112.982,281.491a.739.739,0,1,0,0-1.477,2.77,2.77,0,0,0-2.5,0,.739.739,0,1,0,0,1.477,2.77,2.77,0,0,0,2.5,0Z" transform="translate(-49.073 -263.382)"/><path class="g" d="M119.828,277.572a.739.739,0,0,0,0-1.44,2.74,2.74,0,0,0-2.511,0,.739.739,0,0,0,0,1.44,2.74,2.74,0,0,0,2.511,0Z" transform="translate(-50.903 -262.365)"/><path class="g" d="M65.462,308.921a.739.739,0,1,0,0-1.477,2.77,2.77,0,0,0-2.5,0,.739.739,0,1,0,0,1.477A2.769,2.769,0,0,0,65.462,308.921Z" transform="translate(-36.65 -270.552)"/><path class="g" d="M72.329,305c.694-.406.694-1.049,0-1.477a2.77,2.77,0,0,0-2.5,0c-.694.4-.694,1.041,0,1.477a2.77,2.77,0,0,0,2.5,0Z" transform="translate(-38.502 -269.528)"/><path class="c" d="M90.056,361.931a2.851,2.851,0,0,1,1.337,2.216.842.842,0,0,1-.369.783c-.162.089-.739.45-.938.539a.953.953,0,0,1-.96-.111l-17.349-10.03a2.866,2.866,0,0,1-1.337-2.216.849.849,0,0,1,.332-.739l.968-.561a.99.99,0,0,1,.968.111Z" transform="translate(-38.798 -282.209)"/><path class="e" d="M90.056,361.931a2.851,2.851,0,0,1,1.337,2.216.842.842,0,0,1-.369.783c-.162.089-.739.45-.938.539a.953.953,0,0,1-.96-.111l-17.349-10.03a2.866,2.866,0,0,1-1.337-2.216.849.849,0,0,1,.332-.739l.968-.561a.99.99,0,0,1,.968.111Z" transform="translate(-38.798 -282.209)"/><path class="c" d="M89.156,362.648,71.777,352.611c-.739-.428-1.337-.126-1.337.672a2.866,2.866,0,0,0,1.337,2.216l17.379,10.03c.739.428,1.337.126,1.337-.672a2.851,2.851,0,0,0-1.337-2.208Z" transform="translate(-38.799 -282.387)"/><path class="f" d="M89.156,362.648,71.777,352.611c-.739-.428-1.337-.126-1.337.672a2.866,2.866,0,0,0,1.337,2.216l17.379,10.03c.739.428,1.337.126,1.337-.672a2.851,2.851,0,0,0-1.337-2.208Z" transform="translate(-38.799 -282.387)"/><path class="c" d="M61.835,345.617a2.866,2.866,0,0,1,1.337,2.216.827.827,0,0,1-.369.783l-.938.547a.99.99,0,0,1-.96-.111l-8.2-4.734a2.866,2.866,0,0,1-1.337-2.216.857.857,0,0,1,.34-.739c.17-.1.8-.473.968-.561a.982.982,0,0,1,.968.1Z" transform="translate(-33.813 -279.329)"/><path class="e" d="M61.835,345.617a2.866,2.866,0,0,1,1.337,2.216.827.827,0,0,1-.369.783l-.938.547a.99.99,0,0,1-.96-.111l-8.2-4.734a2.866,2.866,0,0,1-1.337-2.216.857.857,0,0,1,.34-.739c.17-.1.8-.473.968-.561a.982.982,0,0,1,.968.1Z" transform="translate(-33.813 -279.329)"/><path class="c" d="M60.905,346.337l-8.2-4.734c-.739-.421-1.337-.118-1.337.68a2.866,2.866,0,0,0,1.337,2.216l8.2,4.734c.739.421,1.337.118,1.337-.68a2.851,2.851,0,0,0-1.337-2.216Z" transform="translate(-33.814 -279.511)"/><path class="f" d="M60.905,346.337l-8.2-4.734c-.739-.421-1.337-.118-1.337.68a2.866,2.866,0,0,0,1.337,2.216l8.2,4.734c.739.421,1.337.118,1.337-.68a2.851,2.851,0,0,0-1.337-2.216Z" transform="translate(-33.814 -279.511)"/></g><g transform="translate(93.244 127.761)"><path class="j" d="M154.256,363.788l19.314,11.2a2.3,2.3,0,0,0,2.1,0l55.438-31.958a.643.643,0,0,0,0-1.219l-19.314-11.2a2.327,2.327,0,0,0-2.1,0l-55.438,31.981a.643.643,0,0,0,0,1.2Z" transform="translate(-153.848 -329.342)"/><g transform="translate(2.085)"><path class="h" d="M229.59,339.8a.739.739,0,0,0-.428-.6l-17.275-9.971a2.253,2.253,0,0,0-2.061,0L157.1,359.72a.739.739,0,0,0-.428.6v1.81a.738.738,0,0,0,.428.6l17.275,9.971a2.3,2.3,0,0,0,2.061,0l52.727-30.407a.739.739,0,0,0,.428-.591Z" transform="translate(-156.67 -328.982)"/><path class="g" d="M174.375,370.836,157.1,360.91a.628.628,0,0,1,0-1.189l52.727-30.489a2.253,2.253,0,0,1,2.061,0l17.275,9.971a.628.628,0,0,1,0,1.189l-52.727,30.444a2.253,2.253,0,0,1-2.061,0Z" transform="translate(-156.671 -328.982)"/><path class="h" d="M175.337,382.183v1.854a2.083,2.083,0,0,1-.968-.236l-17.261-9.971a.739.739,0,0,1-.428-.6V371.4a.739.739,0,0,0,.428.6l17.261,9.934A2.216,2.216,0,0,0,175.337,382.183Z" transform="translate(-156.673 -340.071)"/><path class="c" d="M211.854,331.447h0l1.714.982-2.319,1.344-1.773-1,2.319-1.337Zm2.681,1.544h0l1.706.99-1.817,1.049-1.728-.96,1.824-1.056Zm-5.909.325h.037l1.714.99-1.824,1.049-1.765-.982,1.817-1.056Zm8.6,1.219h0l1.714.99-2.954,1.7-1.765-.99,2.954-1.7Zm-5.421.037h0l1.714.99-1.477.835-1.765-.99,1.477-.835Zm-5.909.332h.037l1.714.982-1.824,1.056-1.765-1,1.817-1.049Zm3.545,1.041h.044l1.706.982-1.448.835-1.765-.99,1.477-.835Zm10.473.14h0l1.706.982-2.275,1.352-1.765-1,2.319-1.337Zm-16.758.4h0l1.706.99-13.162,7.6-1.773-1,13.169-7.593Zm10.215.281h.037l1.714.99-1.477.835-1.773-.99,1.477-.835Zm-6.293.547h0l1.714.982-1.477.835-1.773-.99,1.477-.835Zm15.51.318h0l1.714.99-1.477.835-1.773-1,1.477-.835Zm-5.909.325h.037l1.706.99-1.477.835-1.765-1,1.477-.835Zm-5.672.185h.037l1.714.982-1.477.835-1.773-.99,1.477-.835Zm-6.293.539h0l1.714.99-1.477.835-1.773-1,1.477-.835Zm15.51.318h.044l1.706.99-1.477.835-1.765-1,1.477-.835Zm-5.909.325h.037l1.714.99-1.477.835-1.773-1,1.477-.835Zm-5.672.185h.044l1.706.982-1.477.835-1.765-.99,1.477-.835Zm17.209,0h.037l1.714.982-1.824,1.056-1.765-1,1.817-1.049Zm-23.5.539h.007l1.706.99-1.477.835-1.706-.99,1.44-.835Zm15.51.318h.007l1.706.99-1.477.835-1.706-.99,1.477-.835Zm-5.909.325h0l1.714.99-1.477.835-1.706-.982,1.477-.835Zm-5.665.185h.037l1.706.99-1.477.835-1.765-1,1.477-.835Zm-6.293.539h0l1.706.99-1.477.835-1.765-1,1.477-.835Zm22.091.273h0l1.714.982-1.477.842-1.773-1,1.477-.835Zm-6.581.044h0l1.714.99-1.477.835-1.773-.99,1.477-.835Zm-5.909.325h.044l1.706.99-1.477.835-1.795-.945,1.477-.835Zm-5.665.185h0l1.714.99-1.477.835-1.773-1,1.477-.835Zm-6.293.539h.037l1.714.99-1.477.835-1.773-.99,1.477-.835Zm22.091.273h.044l1.706.99-1.477.835-1.765-1,1.44-.835Zm-6.581.044h.037l1.714.99-1.477.835-1.773-.99,1.477-.835Zm-5.909.332h0l1.714.982-1.477.835-1.773-.99,1.477-.835Zm-5.672.177h0l1.714.99-1.477.835-1.765-1.019,1.44-.835Zm-6.293.547h.037l1.714.982-1.477.835-1.765-.99,1.44-.835Zm22.1.266h0l1.706.99-1.477.835-1.765-1,1.477-.835Zm-6.588.052h.044l1.706.982-1.477.835-1.765-.99,1.477-.835Zm-21.677.148h-.044l1.714.99-1.824,1.049-1.765-.99L189,344.609Zm15.761.177h.037l1.714.982-1.477.842-1.773-1,1.477-.835Zm-5.665.177h.037l1.706.99-1.477.835-1.765-.99,1.477-.835Zm-6.293.547h0l1.706.982-1.477.835-1.765-.99,1.477-.835Zm22.091.266h.037l1.714.99-1.477.835-1.839-.982,1.477-.835Zm-6.581.052h0l1.714.982-1.477.842-1.765-1,1.477-.835Zm-5.909.325h.044l1.706.99-1.477.835-1.765-1,1.477-.835Zm-16.131.044h.037l1.714.982-1.824,1.056-1.765-1,1.817-1.049Zm10.466.133h0l1.669,1.027-1.477.835-1.773-.99,1.477-.835Zm-6.293.547h-.015l1.714.99-1.477.835-1.773-1,1.477-.835Zm15.51.318h-.015l1.714.99-1.477.835-1.773-1,1.477-.835Zm-5.909.325h0l1.714.99-1.477.835-1.765-1,1.477-.835Zm-5.672.185h.037l1.714.982-1.477.835-1.773-.99,1.477-.835Zm17.142,0h0l1.706.99-1.477.835-1.765-1,1.477-.835Zm-27.978.037h0l1.706.99-1.817,1.049-1.773-1,1.824-1.049Zm4.542.465h.037l1.714.99-1.477.835-1.765-1,1.44-.835Zm15.51.318h.044l1.706.99-1.477.835-1.765-1,1.44-.835Zm-5.909.325h.037l1.714.99-1.477.835-1.773-1,1.477-.835Zm-5.672.185h.044l1.706.99-1.477.835-1.854-.953,1.477-.835Zm17.142.037h.037l1.714.99-1.477.835-1.773-1,1.477-.835Zm-28.354.251h0l1.714.99-2.319,1.337-1.773-.99,2.319-1.337Zm4.919.251h.044l1.706.99-4.66,2.7-1.765-1,4.564-2.637Zm15.51.318h.037l1.706.99-1.477.835-1.765-1,1.477-.827Zm-5.909.325h.044l1.706.99-1.477.835-1.765-.99,1.44-.835Zm-5.665.185h.037l1.714.99-1.477.835-1.773-1,1.477-.835Zm17.135.037h.037l1.714.99-1.477.835-1.861-.945,1.44-.835Zm-7.918.82h.037l1.714.99-1.477.835-1.773-.99,1.477-.835Zm-21.8.229h0l1.714.982-1.477.835-1.773-.99,1.477-.835Zm15.887.1h.037l1.706.982-1.477.835-1.765-.99,1.477-.835Zm-5.672.177h.037l1.714.99-1.322.739a.278.278,0,0,0,.007.495l2.216,1.293-1.7.982-4.432-2.541,3.442-1.987Zm17.143.037h.037l1.706.99-1.477.835-1.765-.99,1.477-.835Zm-7.925.827h0l1.714.982-1.477.835-1.765-.99,1.477-.835Zm-21.8.222h.037l1.714.982-1.529.909-1.765-1,1.44-.835Zm15.887.1h.037l1.714.982-1.477.835-1.773-.99,1.477-.835Zm10.436.812h.044l1.706.99-1.477.835-1.765-1,1.44-.835Zm-6.884.229h.037l1.706.982-1.477.842-1.765-1,1.477-.835Zm-21.81.222h.044l1.706.99-1.477.835-1.765-1,1.477-.835Zm5.052.177h.037l1.706.99-1.477.835-1.765-1,1.477-.835Zm21.279.739h.037l1.706.99-1.477.835-1.846-.945,1.477-.835Zm-6.891.229h.037l1.714.982-2.57,1.477-1.773-.99,2.57-1.477Zm-22.305.51h.037l1.714.99-3.818,2.216-1.765-1,3.811-2.216Zm15.636.244h.044l1.706.99-1.477.835-1.765-.99,1.477-.835Zm11.19.391h.037l1.714.99-1.477.835-1.773-.99,1.477-.835Zm-24.144.908h.037l1.706.99-1.477.835-1.765-.99,1.477-.835Zm10.591.074h.037l1.706.982-1.477.835-1.765-.99,1.477-.835Zm5.045.177h0l1.714.982-1.477.842-1.773-1,1.477-.835Zm6.138.207h0l1.714.982-1.477.835-1.765-.99,1.477-.835Zm-29.189.739h.037l1.714.99-1.477.835-1.773-.99,1.477-.835Zm5.045.185h.037l1.714.982-1.477.835-1.773-.99,1.477-.835Zm10.591.066h.037l1.61,1.049-1.477.842-1.773-1,1.477-.835Zm-5.547.111h.037l1.714.982-1.477.835-1.765-.99,1.44-.835Zm10.591.066h.037l1.714.99-1.477.835-1.773-1,1.477-.835Zm5.621.51h.037l1.706.982-1.477.842-1.765-1,1.477-.835Zm-28.672.436h.037l4.387,2.526-1.477.842-4.432-2.541,1.477-.835Zm5.045.177h.044l1.706.982-1.477.842-1.765-1,1.477-.835Zm5.045.177h.044l1.706.982-1.477.842-1.765-1,1.477-.835Zm10.591.066h.044l1.706.99-1.477.835-1.765-1,1.44-.835Zm-5.539.111h.037l1.706.99-1.477.835-1.839-.953,1.477-.835Zm11.16.4h0l1.714.99-1.477.835-1.773-1,1.477-.835Zm-18.575.79h.037l1.714.99-1.477.835-1.773-1,1.477-.835Zm5.045.177h.037l1.714.99-1.477.835-1.773-1,1.477-.835Zm4.963.244h0l1.714.99-1.477.835-1.773-1,1.477-.835Zm6.115.222h.037l1.714.99-1.477.835-1.765-1,1.44-.835Zm-18.575.79h.037l4.387,2.533-1.477.835-4.432-2.541,1.477-.835Zm5.045.177h0l1.714.99-1.477.835-1.684-1.027,1.477-.827Zm5.045.177h.037l1.714.99-1.477.835-1.765-.99,1.477-.835Zm6.285.849h0l.739.421-1.477.835-.8-.428,1.477-.835Zm-8.671.458h.037l1.706.99-1.477.835-1.765-.99,1.477-.835Zm6.3.908h.044l.739.421-1.477.835-.79-.428,1.433-.835Zm-8.671.465h.037l1.714.982-1.477.835-1.773-.99,1.477-.835Zm6.307.9h.037l.739.421-1.477.835-.79-.428,1.477-.827Zm-2.371,1.366h0l.739.421-1.477.835-.8-.428,1.477-.827Z" transform="translate(-157.797 -329.625)"/></g></g><g transform="translate(34.242)"><path class="k" d="M95.9,336.305c.8,2.016,2.519,3.065,5.067,4.2,7.46,3.361,25.341,7.386,35.378,9.173,5.842,1.041,11.817,2.954,17.785,3.213,5.34.214,10.879-.739,15.311-3.752a3.324,3.324,0,0,0,1.433-1.558,2.519,2.519,0,0,0-1.248-2.77,7.526,7.526,0,0,0-3.154-.835,128.668,128.668,0,0,1-34.573-9.166c4.956-.524,9.993-1.064,14.6-2.954s8.863-5.34,10.458-10.052a5.383,5.383,0,0,1,1.374-2.622,3.176,3.176,0,0,1,3.013-.281c3.242,1.16,4.527,4.956,5.488,8.265s2.555,7.083,5.909,7.844c-1.219-.739-.739-2.851.547-3.361a3.247,3.247,0,0,1,3.641,1.477c.783,1.189.982,2.541,1.632,3.745s2.046,2.216,3.309,1.721a3.124,3.124,0,0,0,1.477-1.581c1.787-3.493,1.477-7.8-.1-11.4a29.984,29.984,0,0,0-7.068-9.321c-3.951-3.774-8.4-7.164-13.516-9.085-10.709-4.025-22.756-1.093-33.369,3.191a138.684,138.684,0,0,0-22.963,11.854,38.487,38.487,0,0,0-7.563,5.909c-1.617,1.728-3.316,4.18-3.146,6.647A5.037,5.037,0,0,0,95.9,336.305Z" transform="translate(-79.619 -195.03)"/><g transform="translate(54.735 59.301)"><path class="l" d="M200.384,306.841c-1.566-2.423-4.372-7.386-5.251-8.405-2.4-2.733-7.349-7.053-7.349-7.053-4.668-3.8-19-16.463-19-16.463s-2.216-28.066-4.7-32.557c-2.866-5.229-8.316-5.443-13.959-5.783a110.064,110.064,0,0,0-2.053,11.079s5.074,31.478,5.68,34.4,2.09,4.21,5.111,6.152c4.616,2.954,21.315,11.928,21.315,11.928l.82.569a3.28,3.28,0,0,1,1.211,1.61,9.5,9.5,0,0,1,.436,1.994c.266,2.327,0,2.954.2,5.5s.739,2.459,1.736,4.638c.894,2.016,1.16,3.279,1.9,3.353s1.684-1.566,1.684-3.228-1.012-3.493-1.049-4.2.332-1.573,1.913-.643,3.058,3.759,4.232,5.717,1.8,4.542,2.991,5.953,1.632-.155,2.179-1.477,3.213-3.479,3.914-5.591S201.935,309.271,200.384,306.841Z" transform="translate(-148.07 -236.366)"/><path class="g" d="M150.581,236.327c3.885,0,7.039-.428,10.458,1.654s4.343,4.934,5.118,9.365c.7,4.033,2.127,17.918,2.127,17.918s-9.867,5.443-18.465,1.972Z" transform="translate(-148.527 -236.291)"/><path class="c" d="M206.75,339.19Z" transform="translate(-163.41 -263.19)"/></g><path class="h" d="M161.9,210.56a21.919,21.919,0,0,1,4.683,2.171,4.129,4.129,0,0,1,1.425,5.6l-1.78-.355s.916-2.09-.155-3.205-4.2-2.083-4.2-2.083Z" transform="translate(-96.942 -170.264)"/><path class="c" d="M167.888,219.428c-1.477-.7-2.142.2-3.161,2.652s-.318,3.124.923,3.612,2.216-.332,2.954-2.363C169.461,221.046,169.439,220.189,167.888,219.428Z" transform="translate(-97.561 -172.522)"/><path class="k" d="M168.048,219.458c-1.477-.7-2.142.2-3.161,2.652s-.318,3.124.923,3.612,2.216-.332,2.954-2.363C169.628,221.076,169.606,220.219,168.048,219.458Z" transform="translate(-97.603 -172.529)"/><path class="m" d="M120.862,238.138a138.818,138.818,0,0,0-23.4,7.275s-.524,28,4.01,41.361,3.228,28.583,3.228,28.583c22.157,3.582,49.034-6.714,48.37-17.881a49.484,49.484,0,0,0-3.737-6.721s-.554-8.974-.31-12.969c16.249-15.207-6.315-34.713-12.135-41.4C133.344,236.838,128.137,236.506,120.862,238.138Z" transform="translate(-80.101 -177.013)"/><path class="g" d="M113.386,175.979c-1.049,1.883-.613,4.107-.185,6.1.332,1.521,1.241,3.4.857,4.949a10.008,10.008,0,0,1-3.693,5.3,10.843,10.843,0,0,1-1.4.99c-.421.229-.908.332-1.337.569a5.99,5.99,0,0,0-2.179,2.216,16.708,16.708,0,0,0-1.581,4.2,14.631,14.631,0,0,1-1.662,4.158,8.6,8.6,0,0,1-7.637,3.612,10.339,10.339,0,0,1-4.6-1.477A12.2,12.2,0,0,1,88,205.116a5,5,0,0,1-1.3-1.728,8.331,8.331,0,0,0,1.389,5.591A9.794,9.794,0,0,1,76.678,198c.266-1.891,1.071-3.693,1.477-5.532,1.123-5.022-3.383-7.77-4.121-12.349a7.1,7.1,0,0,1,3.619-7.238c1.544-.812,3.575-1.219,4.217-2.836.495-1.241-.111-2.622-.089-3.959,0-2.644,2.5-4.66,5.008-5.458s5.237-.79,7.77-1.544c2.7-.8,5.17-2.445,7.918-2.954a10.207,10.207,0,0,1,9.011,3.073c1.041,1.108,1.61,2.4,2.533,3.545s2.334,1.736,3.013,3.08a6.211,6.211,0,0,1,.192,5.717C116.3,173.305,114.346,174.273,113.386,175.979Z" transform="translate(-73.962 -156.001)"/><path class="m" d="M144.626,184.1c-.31-8.789-5.414-21.33-24.3-19.728-18.405,1.566-23.819,17.984-22.157,26.9,2.341,12.3,11.293,13.1,13.619,21.138Z" transform="translate(-80.216 -158.152)"/><path class="l" d="M104.949,195.326a4.431,4.431,0,0,1,4.624-1.536,4.564,4.564,0,0,1,2.275,1.477c.849.938.835,2.216,1.433,3.287a2.43,2.43,0,0,0,1.8,1.307c2.533.229,1.588-3.885,1.728-5.347,4.786-1.7,4.653-3.471,5.3-7.7,3.353-3.619,9.173-4.151,14.21-.687,3.072-5.909,6.4-5.17,7.844-3.346a23.635,23.635,0,0,1,2.149,6.876,45.741,45.741,0,0,1,.805,10.85c-.62,14.114-5.273,17.5-7.593,18.465s-5.17.266-9.432-.539v8.479c4.431,8.457,7.969,21.256,7.8,29.617-6.817-12.91-17.49-19.816-22.534-24.506a19.3,19.3,0,0,1-3.05-3.516V206.235s-1.861,1.987-4.816-.362C103.546,202.712,102.335,198.281,104.949,195.326Z" transform="translate(-81.7 -162.66)"/><path class="n" d="M134.413,227.982c-3.693-.96-7.644-2.356-10.34-4.431a12.762,12.762,0,0,1-4-5.621s.318,5.443,3.058,7.9,11.315,5.281,11.315,5.281Z" transform="translate(-86.015 -172.19)"/><path class="h" d="M138.888,204.276a1.957,1.957,0,1,1-2.216-1.75,1.994,1.994,0,0,1,2.216,1.75Z" transform="translate(-89.913 -168.159)"/><path class="h" d="M157.81,202.026a1.8,1.8,0,0,1-1.477,2.061,1.7,1.7,0,0,1-2.009-1.588,1.774,1.774,0,1,1,3.516-.473Z" transform="translate(-94.966 -167.631)"/><path class="n" d="M145.82,199.26l1.389,11.758,6.042-2.3Z" transform="translate(-92.747 -167.31)"/><path class="h" d="M137.207,196.341l-4.432,2.024a2.541,2.541,0,0,1,1.233-3.3,2.378,2.378,0,0,1,3.2,1.278Z" transform="translate(-89.282 -166.156)"/><path class="o" d="M136.839,217.18l6.359,2.157a3.523,3.523,0,0,1-4.387,2.142,3.279,3.279,0,0,1-1.972-4.3Z" transform="translate(-90.339 -171.994)"/><path class="n" d="M137.015,219.19a3.3,3.3,0,0,1,3.117,2.954,3.286,3.286,0,0,1-1.3-.162,3.191,3.191,0,0,1-2.142-2.762A2.3,2.3,0,0,1,137.015,219.19Z" transform="translate(-90.36 -172.52)"/><path class="h" d="M158.236,196.33l-4.476-1.965a2.341,2.341,0,0,1,3.146-1.307,2.57,2.57,0,0,1,1.329,3.272Z" transform="translate(-94.822 -165.635)"/><path class="h" d="M139.49,235.21c2.851.827,11.182,12.1,13.885,16.16l-3.058,7.8a36.013,36.013,0,0,1,4.823,6.226l-6.226,18.132s.561-24.159-9.424-42.542Z" transform="translate(-91.092 -176.708)"/><path class="g" d="M140.493,270.178c2.216,5.754,2.526,19.092,2.526,19.092s-2.216-12.445-12.681-16.8c0-.6.111-9.121.111-9.121s-14.033-3.56-16.987-4.9L110.44,242.2s2.016-5.037,3.693-5.17v3.508a163.23,163.23,0,0,1,13.243,11.655C135.027,259.572,138.292,264.424,140.493,270.178Z" transform="translate(-83.498 -177.183)"/><path class="l" d="M169.476,330.642c-2.26-1.9-5.532-4.528-8.124-5.17a14.679,14.679,0,0,0-1.839-.406,19.714,19.714,0,0,0,2.578-.739,4.682,4.682,0,0,0,2.1-1.654c.192-.3.31-.739,0-.975a.621.621,0,0,0-.377-.1c-1.913.1-3.442-.074-5.17-.059a7.474,7.474,0,0,0-2.334.236c-.694.259-1.389.524-2.068.82-3.08,1.359-5.909,2.585-10.458,1.913l-1.906-.5-32.04-16.507-6.079-33.089s-1.477-20.518-9.786-25.5c-4.431,1.684-9.284,5.85-10.6,10.34-1.551,5.34-.945,12.925,1.7,24.691,2.216,9.845,4.528,19.942,7.031,27.438s3.464,10.148,8.383,11.618c8.25,2.467,38.015,10.628,38.015,10.628a19.562,19.562,0,0,0,1.861.613,29.982,29.982,0,0,0,4.431,1.529c2.9.635,6.433-.687,8.863-1.027s6.7.458,9.055,1.2,4.8-3,5.975-2.666S171.743,332.547,169.476,330.642Z" transform="translate(-76.201 -180.289)"/><path class="n" d="M183.924,350.012a8.678,8.678,0,0,0-3.434.849,19.07,19.07,0,0,1,4.6.414,19.717,19.717,0,0,0,2.578-.739,4.942,4.942,0,0,0,1.913-1.4C188.253,350.189,185.594,350.041,183.924,350.012Z" transform="translate(-101.81 -206.491)"/><path class="g" d="M93.282,248.61c-5.739,2.452-9.542,5.451-11.079,11.766s-.451,11.862.842,18.546,4.321,17.549,4.321,17.549,12.283.739,19.366-4.173l-3.878-25.2s-2.046-14.964-9.181-18.258" transform="translate(-75.919 -180.21)"/><path class="c" d="M108.171,166.8c-4.313,4-8.449,9.661-5.384,22.77a7.113,7.113,0,0,0-1.78,7.386c1.182,4.047,5.067,6.714,8.678,5.909s5.569-4.66,4.387-8.715c-.894-3.028-4.143-5.96-6.817-5.768,0,0-2.563-5.606-.162-13.553,3.279-10.828,15.9-11.729,21.456-10.85C126.687,161.343,113.873,161.521,108.171,166.8Z" transform="translate(-80.933 -157.651)"/><path class="e" d="M108.171,166.8c-4.313,4-8.449,9.661-5.384,22.77a7.113,7.113,0,0,0-1.78,7.386c1.182,4.047,5.067,6.714,8.678,5.909s5.569-4.66,4.387-8.715c-.894-3.028-4.143-5.96-6.817-5.768,0,0-2.563-5.606-.162-13.553,3.279-10.828,15.9-11.729,21.456-10.85C126.687,161.343,113.873,161.521,108.171,166.8Z" transform="translate(-80.933 -157.651)"/><path class="c" d="M114.044,202.845c-1.315-4.491-5.621-7.438-9.6-6.6a6.108,6.108,0,0,0-1.736.65c-.451.251-1.81,1.182-2.075,1.359-2.555,1.691-3.693,5.17-2.681,8.745,1.315,4.491,5.621,7.438,9.6,6.6a6.256,6.256,0,0,0,2.068-.842c.325-.207,1.6-1.056,1.906-1.278C113.97,209.758,115.07,206.368,114.044,202.845Z" transform="translate(-80.137 -166.485)"/><path class="f" d="M114.044,202.845c-1.315-4.491-5.621-7.438-9.6-6.6a6.108,6.108,0,0,0-1.736.65c-.451.251-1.81,1.182-2.075,1.359-2.555,1.691-3.693,5.17-2.681,8.745,1.315,4.491,5.621,7.438,9.6,6.6a6.256,6.256,0,0,0,2.068-.842c.325-.207,1.6-1.056,1.906-1.278C113.97,209.758,115.07,206.368,114.044,202.845Z" transform="translate(-80.137 -166.485)"/><path class="c" d="M112.406,204.327c-1.315-4.483-5.621-7.438-9.6-6.588s-6.175,5.17-4.86,9.653,5.621,7.438,9.6,6.6S113.721,208.817,112.406,204.327Z" transform="translate(-80.132 -166.874)"/><path class="k" d="M112.406,204.327c-1.315-4.483-5.621-7.438-9.6-6.588s-6.175,5.17-4.86,9.653,5.621,7.438,9.6,6.6S113.721,208.817,112.406,204.327Z" transform="translate(-80.132 -166.874)"/><path class="g" d="M110,206.685a4.134,4.134,0,0,0-4.542-3.109,3.417,3.417,0,0,0-2.3,4.557,4.156,4.156,0,0,0,4.542,3.109A3.444,3.444,0,0,0,110,206.685Z" transform="translate(-81.544 -168.42)"/></g><g transform="translate(135.109 97.365)"><path class="k" d="M226.2,407.149,211.269,398.4a.739.739,0,0,1,0-1.477l58.562-33.812a2.725,2.725,0,0,1,2.482,0l14.919,8.678a.739.739,0,0,1,0,1.433l-58.555,33.931a2.711,2.711,0,0,1-2.474-.007Z" transform="translate(-210.53 -307.43)"/><g transform="translate(3.687)"><path class="h" d="M282.008,338.282l3.922-46.531a3.981,3.981,0,0,0-1.743-3.486,4.431,4.431,0,0,0-3.988.074l-58.5,33.775a5.1,5.1,0,0,0-2.26,3.56L215.528,372.2a3.951,3.951,0,0,0,1.736,3.486,4.431,4.431,0,0,0,4-.074l58.5-33.746a5.074,5.074,0,0,0,2.253-3.589Z" transform="translate(-215.522 -287.827)"/><path class="g" d="M287.6,291.754l-3.914,46.531,2.844-46.191c.1-1.307-.369-1.8-1.477-1.152L227.27,324.333a4.661,4.661,0,0,0-1.477,1.514l-3.863-2.216a4.52,4.52,0,0,1,1.477-1.477L281.9,288.379a4.468,4.468,0,0,1,4-.074A3.974,3.974,0,0,1,287.6,291.754Z" transform="translate(-217.197 -287.838)"/><path class="m" d="M220.757,375.424l3.922-46.531a5.074,5.074,0,0,1,2.253-3.56L284.711,291.9c1.137-.657,1.61-.155,1.477,1.152l-2.844,46.191a5.074,5.074,0,0,1-2.253,3.567l-58.5,33.768C221.488,377.263,220.654,376.739,220.757,375.424Z" transform="translate(-216.889 -288.816)"/><path class="h" d="M259.511,364.6l-.451,14.018,16.249-9.343L271.35,357.8Z" transform="translate(-226.904 -306.119)"/><path class="m" d="M262.2,366.373l11.345-6.588-1.935-1.115-11.337,6.6Z" transform="translate(-227.22 -306.347)"/><path class="g" d="M278.488,379.863l-6.2-19.683-11.345,6.6-1.92-1.123,1.27,15.156.318,4.358.185.931-.827-.473-3.693-2.112a.62.62,0,0,0-.554-.074h0a.569.569,0,0,0-.259.539v.332a1.773,1.773,0,0,0,.8,1.4h0l6.071,3.508h0a1.772,1.772,0,0,0,.739.192,1.7,1.7,0,0,0,.879-.2l13.819-7.977A1.425,1.425,0,0,0,278.488,379.863Zm-8.723-1.684a2.386,2.386,0,0,1-3.693-1.477,4.572,4.572,0,0,1,2.031-4.83,2.371,2.371,0,0,1,3.693,1.477A4.565,4.565,0,0,1,269.765,378.179Z" transform="translate(-225.962 -306.741)"/><path d="M255.83,390.718,260.542,388l.953,6.337Z" transform="translate(-226.06 -314.014)"/><path class="h" d="M260.943,368.715l-1.928-1.115,1.6,19.5c.1.517-.192.739-.635.458l-3.693-2.112c-.451-.266-.812-.044-.812.473v.325a1.787,1.787,0,0,0,.783,1.411h0l6.086,3.508h0a1.7,1.7,0,0,0,.739.192Z" transform="translate(-225.965 -308.681)"/><path class="h" d="M273.737,382.168a2.371,2.371,0,0,1-3.087-.332,2.7,2.7,0,0,0,1.721-.4,4.55,4.55,0,0,0,2.031-4.823,2.821,2.821,0,0,0-.613-1.174,2.408,2.408,0,0,1,1.972,1.9A4.564,4.564,0,0,1,273.737,382.168Z" transform="translate(-229.934 -310.731)"/><path class="c" d="M261.407,343.876l-.739,8.974c-.052.591.273.864.739.606a2.127,2.127,0,0,0,.9-1.529l.739-8.966c.052-.6-.273-.864-.739-.613a2.164,2.164,0,0,0-.9,1.529Z" transform="translate(-227.323 -302.055)"/><path class="c" d="M265.347,341.6l-.739,8.966c-.052.591.273.864.739.613a2.156,2.156,0,0,0,.9-1.536l.739-8.966c.052-.591-.273-.864-.739-.606A2.149,2.149,0,0,0,265.347,341.6Z" transform="translate(-228.353 -301.46)"/><path class="c" d="M269.287,339.325l-.739,8.974c-.052.591.273.864.739.606a2.127,2.127,0,0,0,.9-1.529l.739-8.966c.052-.6-.273-.864-.739-.613A2.164,2.164,0,0,0,269.287,339.325Z" transform="translate(-229.383 -300.865)"/><path class="c" d="M273.227,337.054l-.739,8.966c-.044.591.273.864.739.613a2.157,2.157,0,0,0,.9-1.536l.739-8.966c.052-.591-.273-.864-.739-.606a2.149,2.149,0,0,0-.9,1.529Z" transform="translate(-230.413 -300.271)"/></g></g></g><g transform="translate(144.191 100.946)"><g transform="translate(14.499 40.264)"><path class="c" d="M217.889,207.937c-4.727-4.882-7.511-24.75-2.9-28.627h23.48c4.616,3.87,1.839,23.738-2.888,28.62l-.133.133-.162.163a5.441,5.441,0,0,1-.428.384l-.111.089c-.118.1-.229.185-.355.273a7.2,7.2,0,0,1-.613.4,15.447,15.447,0,0,1-14.092,0h0c-.214-.118-.414-.259-.62-.4a3.136,3.136,0,0,1-.332-.259,1.478,1.478,0,0,1-.14-.111c-.044-.044-.281-.244-.414-.369l-.185-.185Z" transform="translate(-212.631 -175.414)"/><path class="f" d="M217.889,207.937c-4.727-4.882-7.511-24.75-2.9-28.627h23.48c4.616,3.87,1.839,23.738-2.888,28.62l-.133.133-.162.163a5.441,5.441,0,0,1-.428.384l-.111.089c-.118.1-.229.185-.355.273a7.2,7.2,0,0,1-.613.4,15.447,15.447,0,0,1-14.092,0h0c-.214-.118-.414-.259-.62-.4a3.136,3.136,0,0,1-.332-.259,1.478,1.478,0,0,1-.14-.111c-.044-.044-.281-.244-.414-.369l-.185-.185Z" transform="translate(-212.631 -175.414)"/><path class="c" d="M236.569,176.373c5.355,3.132,5.355,8.2,0,11.33s-14.033,3.124-19.4,0-5.355-8.2,0-11.33S231.214,173.271,236.569,176.373Z" transform="translate(-212.765 -174.035)"/><path class="k" d="M236.569,176.373c5.355,3.132,5.355,8.2,0,11.33s-14.033,3.124-19.4,0-5.355-8.2,0-11.33S231.214,173.271,236.569,176.373Z" transform="translate(-212.765 -174.035)"/><path class="m" d="M235.286,178.63c3.937,2.3,3.937,6.019,0,8.316a15.59,15.59,0,0,1-14.247,0c-3.907-2.3-3.937-6.019,0-8.316A15.59,15.59,0,0,1,235.286,178.63Z" transform="translate(-214.06 -174.786)"/><path class="p" d="M221.246,183.97a15.59,15.59,0,0,1,14.247,0,6.551,6.551,0,0,1,2.356,2.216,6.485,6.485,0,0,1-2.356,2.216,15.59,15.59,0,0,1-14.247,0,6.544,6.544,0,0,1-2.356-2.216,6.647,6.647,0,0,1,2.356-2.216Z" transform="translate(-214.267 -176.182)"/></g><path class="c" d="M242.955,129.026l-9.387,6.418,8.863-3.361a16.153,16.153,0,0,1-1.758,6.824s-5.864,2.844-9.048,5.842l7.807-2.452a38.14,38.14,0,0,1-1.263,8.6,51.657,51.657,0,0,1-4.358,9.483,29.265,29.265,0,0,1-2.149,3.176c-.044.066-.1.126-.148.192-1.477-.968-2.954-1.92-4.52-2.844a48.448,48.448,0,0,1-2.083-12.445c-.68-17.394,13.066-26.36,23.79-28.938a31.374,31.374,0,0,0-5.746,9.506Z" transform="translate(-201.336 -119.52)"/><path class="q" d="M242.955,129.026l-9.387,6.418,8.863-3.361a16.153,16.153,0,0,1-1.758,6.824s-5.864,2.844-9.048,5.842l7.807-2.452a38.14,38.14,0,0,1-1.263,8.6,51.657,51.657,0,0,1-4.358,9.483,29.265,29.265,0,0,1-2.149,3.176c-.044.066-.1.126-.148.192-1.477-.968-2.954-1.92-4.52-2.844a48.448,48.448,0,0,1-2.083-12.445c-.68-17.394,13.066-26.36,23.79-28.938a31.374,31.374,0,0,0-5.746,9.506Z" transform="translate(-201.336 -119.52)"/><path class="a" d="M236.685,132.65a12.991,12.991,0,0,0-2.437,2.954,25.622,25.622,0,0,0-1.721,3.427,35.4,35.4,0,0,0-2.1,7.349,32.5,32.5,0,0,0,.827,15.119h0a.251.251,0,0,1-.473.148h0a32.845,32.845,0,0,1-.591-15.311,35.548,35.548,0,0,1,2.216-7.386,24.956,24.956,0,0,1,1.78-3.412,13.221,13.221,0,0,1,2.5-2.888Z" transform="translate(-202.555 -122.952)"/><path class="c" d="M193,139.36h0a133.746,133.746,0,0,1,8.907,13.368l9,1.736-6.7.96,3.4,5.776,8.863,2.12-6.98.916s1.721,6.839,6.6,9.816c2.7,1.647,4.033,1.928,4.882,1.167.591-.532.827-3.782,1.4-6.647a22.314,22.314,0,0,0-1.81-13.383,17.726,17.726,0,0,0-2.718-4.269C211.5,143.378,199.175,139.463,193,139.36Z" transform="translate(-193 -124.707)"/><path class="r" d="M193,139.36h0a133.746,133.746,0,0,1,8.907,13.368l9,1.736-6.7.96,3.4,5.776,8.863,2.12-6.98.916s1.721,6.839,6.6,9.816c2.7,1.647,4.033,1.928,4.882,1.167.591-.532.827-3.782,1.4-6.647a22.314,22.314,0,0,0-1.81-13.383,17.726,17.726,0,0,0-2.718-4.269C211.5,143.378,199.175,139.463,193,139.36Z" transform="translate(-193 -124.707)"/><path class="k" d="M218.678,158.137h0a27.224,27.224,0,0,1,1.846,7.534h0a80.848,80.848,0,0,1-.044,9.808,1.514,1.514,0,0,0,.51-.288c.591-.532.827-3.782,1.4-6.647a22.314,22.314,0,0,0-1.81-13.383,17.725,17.725,0,0,0-2.718-4.269c-6.359-7.534-18.686-11.448-24.839-11.551,9.395,1.839,19.351,8.427,24.137,15.887A18.972,18.972,0,0,1,218.678,158.137Z" transform="translate(-193.005 -124.701)"/><path class="a" d="M205.719,143.76a36.855,36.855,0,0,1,12.3,9.077,24.373,24.373,0,0,1,4.114,6.522,23.251,23.251,0,0,1,1.736,7.474h0a29.862,29.862,0,0,0-2.149-7.3,28.347,28.347,0,0,0-3.951-6.47,32.653,32.653,0,0,0-5.532-5.244,43.531,43.531,0,0,0-6.492-4.04h0S205.7,143.76,205.719,143.76Z" transform="translate(-196.324 -125.857)"/><path class="c" d="M258.859,148.038h0a19.1,19.1,0,0,0-2.275,0,36.345,36.345,0,0,0-8.8,1.61c-1.064.332-2.127.739-3.176,1.145-.532.214-1.049.443-1.566.687a25.407,25.407,0,0,0-6.943,4.668,15.939,15.939,0,0,0-2.467,3.095l-.273.436h0c-.214.384-.406.739-.6,1.137a21.773,21.773,0,0,0-2.548,10.591c-.052,2.6.665,5.606,1.145,6.123a1.241,1.241,0,0,0,.214.177c.739.517,1.906.3,4.166-.805,4.542-2.216,6.647-8.353,6.647-8.353l-6.056-1.381,7.94-1.13,3.464-4.8-5.857-1.418,8.021-.739a118.911,118.911,0,0,1,8.922-11.02Z" transform="translate(-202.726 -126.966)"/><path class="k" d="M256.554,147.993a36.345,36.345,0,0,0-8.774,1.647c-1.064.332-2.127.739-3.176,1.145-.532.214-1.049.443-1.566.687a25.408,25.408,0,0,0-6.943,4.668,15.94,15.94,0,0,0-2.467,3.095l-.273.436h0c-.214.384-.406.739-.6,1.137a21.773,21.773,0,0,0-2.548,10.591c-.052,2.6.665,5.606,1.145,6.123a1.242,1.242,0,0,0,.214.177,1.3,1.3,0,0,0,.473.207c-.318-4.047,2.216-14.129,5.443-18.154,3.361-4.188,11.079-10.1,21.367-11.721h0A18.731,18.731,0,0,0,256.554,147.993Z" transform="translate(-202.726 -126.958)"/><path class="a" d="M232.609,178.736a34.484,34.484,0,0,1,1.071-8.863,28.672,28.672,0,0,1,3.412-8.265,20.207,20.207,0,0,1,2.888-3.457,28.569,28.569,0,0,1,3.449-2.873,33.082,33.082,0,0,1,7.932-4.158h0a43.576,43.576,0,0,0-7.63,4.528,35.645,35.645,0,0,0-3.4,2.829,19.6,19.6,0,0,0-2.9,3.316,28.627,28.627,0,0,0-3.508,8.124,34.6,34.6,0,0,0-1.256,8.789h0Z" transform="translate(-203.354 -127.781)"/></g><g transform="translate(180.075 68.412)"><g transform="translate(0 0)"><g transform="translate(1.03 24.218)"><path class="a" d="M326.27,272.3h7.5l-1.2,7.312h0a1.352,1.352,0,0,1-.739.908,4.018,4.018,0,0,1-3.626,0,1.366,1.366,0,0,1-.739-.908h0Z" transform="translate(-264.753 -151.144)"/><path class="a" d="M382,242.44h7.5l-1.2,7.312h0a1.374,1.374,0,0,1-.739.9,4.018,4.018,0,0,1-3.626,0,1.359,1.359,0,0,1-.739-.9h0Z" transform="translate(-279.322 -143.338)"/><path class="a" d="M251.08,230.19h7.5l-1.2,7.312h0a1.322,1.322,0,0,1-.739.9,3.974,3.974,0,0,1-3.626,0,1.322,1.322,0,0,1-.739-.9h0Z" transform="translate(-245.097 -140.135)"/><path class="a" d="M302.71,200.16h7.5l-1.2,7.312h0a1.337,1.337,0,0,1-.739.9,4.018,4.018,0,0,1-3.626,0,1.337,1.337,0,0,1-.739-.9h0Z" transform="translate(-258.594 -132.285)"/><path class="g" d="M243,159.887v34.92a8.073,8.073,0,0,0,3.619,6.322l2.954,1.714h.052a8.213,8.213,0,0,0,4.542.775l44.5,23.546a8.124,8.124,0,0,0,3.59,6.042h.037l2.954,1.7a1.657,1.657,0,0,0,.273.148l.155.074h.044a8.243,8.243,0,0,0,5.635.259,5.906,5.906,0,0,0,.635-.229.554.554,0,0,1,.1-.044,3.334,3.334,0,0,0,.428-.222l42.838-24.654a8.065,8.065,0,0,0,3.634-6.293l.059-44.2V142.966a8.125,8.125,0,0,0-3.634-6.3l-47.89-27.593a7.511,7.511,0,0,0-7.017.118l-2.954,1.706a9.668,9.668,0,0,0-4.188,6.263l-2.851,18.708-2.637-1.521a7.888,7.888,0,0,0-7.91,0l-33.347,19.247A8.073,8.073,0,0,0,243,159.887Z" transform="translate(-242.985 -108.261)"/><path class="m" d="M316.317,110.9l2.954-1.706a7.511,7.511,0,0,1,7.017-.118l47.882,27.593c.214.126.443.288.377.236a8.3,8.3,0,0,1,3.22,5.451c-.266-1.861-1.78-2.533-3.59-1.477l-2.954,1.714a8.028,8.028,0,0,1-7.268,0l-47.631-27.475C314.308,113.977,314.308,112.057,316.317,110.9Z" transform="translate(-261.758 -108.261)"/><path class="h" d="M243,168.744v34.92a8.073,8.073,0,0,0,3.619,6.322l2.954,1.714h.052a7.8,7.8,0,0,0,4.262.805,7.2,7.2,0,0,0,2.954-.835l33.665-19.41a8.073,8.073,0,0,0,3.634-6.3V151.025a8.058,8.058,0,0,0-3.634-6.3l-2.637-1.521a7.888,7.888,0,0,0-7.91,0l-33.34,19.247A8.073,8.073,0,0,0,243,168.744Z" transform="translate(-242.985 -117.118)"/><path class="m" d="M287.856,143.21l2.644,1.521c2,1.152,2,3.043,0,4.2l-33.65,19.432a8.065,8.065,0,0,0-3.641,6.3v34.913c0,2.312-1.64,3.257-3.641,2.1l-2.954-1.714a8.073,8.073,0,0,1-3.634-6.293V168.75a8.124,8.124,0,0,1,3.634-6.3l33.34-19.2A7.873,7.873,0,0,1,287.856,143.21Z" transform="translate(-242.98 -117.124)"/><path class="g" d="M253.209,182.8v34.913c0,2.312-1.64,3.257-3.641,2.1l-2.954-1.714a8.073,8.073,0,0,1-3.634-6.293v-34.92a7.46,7.46,0,0,1,1.071-3.582l10.229,5.909a7.438,7.438,0,0,0-1.071,3.582Z" transform="translate(-242.98 -125.266)"/><path class="h" d="M258.642,227.149a8.62,8.62,0,0,0,1.329,1.994,15.453,15.453,0,0,0,3.42,2.393c12.785,7.386,22.01,12.689,34.795,20.075a4.033,4.033,0,0,0,3.634,0l11.817-6.832,23.635-13.649a6.832,6.832,0,0,0,0-12.076l-13.4-7.718-10.229-5.909-11.116-6.4a8.028,8.028,0,0,0-7.275,0l-33.642,19.41a7.8,7.8,0,0,0-3.641,6.034,6.441,6.441,0,0,0,.672,2.674Z" transform="translate(-246.899 -131.762)"/><path class="g" d="M298.183,251.941l-38.406-22.157c-1-.576-1.817-.1-1.817,1.056v3.693a4.047,4.047,0,0,0,1.817,3.146l38.406,22.157c1,.576,1.817.1,1.817-1.049v-3.693a4,4,0,0,0-1.817-3.154Z" transform="translate(-246.896 -139.965)"/><path class="g" d="M302.529,174.617l34.765,20.045a8.036,8.036,0,0,1,3.634,6.3v7.386a8.051,8.051,0,0,1-3.634,6.293l-33.657,19.4a8.028,8.028,0,0,1-7.268,0L261.6,213.991a8.051,8.051,0,0,1-3.634-6.293v-7.386a8.058,8.058,0,0,1,3.634-6.3l33.657-19.425a8.028,8.028,0,0,1,7.268.03Z" transform="translate(-246.899 -125.376)"/><path class="h" d="M314.88,226.635V242.4a7.386,7.386,0,0,0,3.634-.879l33.657-19.425A8.051,8.051,0,0,0,355.8,215.8v-7.386a8.125,8.125,0,0,0-3.265-6.064c1.625,1.167,1.477,2.88-.369,3.966l-33.657,19.425a7.386,7.386,0,0,1-3.634.894Z" transform="translate(-261.776 -132.857)"/><path class="m" d="M297.164,218.295,262.4,198.242c-2-1.16-2-3.036,0-4.2l33.657-19.425a8.028,8.028,0,0,1,7.268,0l34.765,20.045c2.009,1.16,2.009,3.043,0,4.2l-33.657,19.425a8.028,8.028,0,0,1-7.268,0Z" transform="translate(-247.664 -125.382)"/></g><path class="o" d="M276.35,236.245s2.807,8.981,2.7,12.423c-.118,3.59.65,4.845-.288,8.678-.2.835-.79,2.489-.953,3.169a1.012,1.012,0,0,0,.805,1.344c1.521.451,4.343-2.216,5.835-5.31a94.867,94.867,0,0,0,4.011-10.9,4.926,4.926,0,0,0-.281-2.541,7.385,7.385,0,0,0-.606-1.359c-.384-1.6-.377-4.572-.635-6.647Z" transform="translate(-250.673 -117.2)"/><path class="h" d="M289.263,254.13a3.693,3.693,0,0,1,.318,1.2c0,.739-1.832,2.954-2.533,3.73a5.739,5.739,0,0,0-1.477,3.959,9.9,9.9,0,0,1-2.917,6.152,15.747,15.747,0,0,1-8.22,4.432c-3.855.842-5.022-1.152-5.022-1.152s-1.019-1.913-.251-2.6S289.263,254.13,289.263,254.13Z" transform="translate(-248.719 -122.175)"/><path class="m" d="M285.571,244.1c.118,0,.318,0,.583.377.1.14.643,1.891,1.137,2.829s1.846,2.748,1.92,4.2c-1.108,2.711-3.885,4.432-4.5,7.031s-.923,5.65-5.237,8.531-8.5,2.866-9.927,1.883-1.152-2.57,1.189-5.443c2.482-3.05,4.564-9.941,4.564-9.941a23.83,23.83,0,0,0,.643-2.954,20.039,20.039,0,0,0,0-2.954,2.216,2.216,0,0,1,.3-1.322,2.3,2.3,0,0,1,1.174-.679,9.859,9.859,0,0,1,2.142-.524,3.309,3.309,0,0,1,2.12.436,15.884,15.884,0,0,0,1.263.968,1.928,1.928,0,0,0,2.016-.185,1.662,1.662,0,0,0,.694-1.78,4.292,4.292,0,0,0-.089-.473Z" transform="translate(-248.668 -119.553)"/><path class="a" d="M282.027,270.68a6.477,6.477,0,0,0-5.6-3.693c-4.3-.34-5.968,1.721-6.729,2.954-.908,1.477-1.95,4.173-.244,5.118,1.839,1.019,4.077.945,7.718-.51A9.322,9.322,0,0,0,282.027,270.68Z" transform="translate(-248.633 -125.526)"/><path class="a" d="M284.8,253.824a.458.458,0,0,1-.391-.037c-.635-.391-4.084-1.425-6.285.3-.251-.236-.162-.62.222-1.137a7.889,7.889,0,0,1,6.559.118.414.414,0,0,1,.118.583.45.45,0,0,1-.222.17Z" transform="translate(-251.099 -121.692)"/><path class="a" d="M277.273,257.482a1.344,1.344,0,0,1,.355-1.16,8.028,8.028,0,0,1,6.234.273.414.414,0,0,1,.118.583.451.451,0,0,1-.606.133C282.753,256.936,279.481,255.953,277.273,257.482Z" transform="translate(-250.91 -122.617)"/><path class="a" d="M274.25,264.978a2.489,2.489,0,0,1,.68-1.514,8.012,8.012,0,0,1,6.455.17.421.421,0,0,1,.118.591.5.5,0,0,1-.222.17.458.458,0,0,1-.391-.037C280.225,263.944,276.421,262.821,274.25,264.978Z" transform="translate(-250.124 -124.455)"/><path class="a" d="M282.58,260.88a.428.428,0,0,1-.391,0c-.628-.391-4-1.4-6.211.244a1.477,1.477,0,0,1,.465-1.241,8.028,8.028,0,0,1,6.234.273.428.428,0,0,1-.1.739Z" transform="translate(-250.574 -123.548)"/><path class="o" d="M264.915,250.65s-2.652,10.451-4.949,14.395-3.471,5.85-6.426,8.73c-.643.628-2.083,1.773-2.607,2.282a1.064,1.064,0,0,0,0,1.64c1.1,1.248,6.152,1.942,9.173.052s6-6.211,7.836-7.785c.694-.591,1.344-1.2,1.979-1.846s.51-1.285.62-2.031c.052-.369.081-1.366.081-1.366.539-1.75,1.832-4.431,2.533-6.152Z" transform="translate(-243.928 -121.265)"/><path class="h" d="M268.554,280.65a3.877,3.877,0,0,1-.244,1.285c-.34.665-3.036,1.95-4.062,2.393a6.027,6.027,0,0,0-3.154,3.08,10.34,10.34,0,0,1-5.51,4.513,16.4,16.4,0,0,1-9.764.532c-4.025-.931-4.232-3.338-4.232-3.338s-.111-2.26.923-2.57S268.554,280.65,268.554,280.65Z" transform="translate(-241.585 -129.108)"/><path class="m" d="M268.508,268.2c.111.059.31.14.391.613a30.922,30.922,0,0,0-.185,3.183c.052,1.1.517,3.427-.066,4.838-2.26,2.075-5.658,2.459-7.386,4.646s-3.39,4.941-8.767,5.739-9.321-1.093-10.229-2.651.052-2.954,3.553-4.624c3.693-1.78,8.76-7.386,8.767-7.386a24.43,24.43,0,0,0,1.92-2.5,20.936,20.936,0,0,0,1.307-2.829,2.312,2.312,0,0,1,.871-1.115A2.371,2.371,0,0,1,260.1,266a10.659,10.659,0,0,1,2.26.451,3.493,3.493,0,0,1,1.81,1.366c.288.473.428,1.034.739,1.477a2.031,2.031,0,0,0,1.994.739,1.721,1.721,0,0,0,1.477-1.374,4.1,4.1,0,0,0,.126-.458Z" transform="translate(-241.679 -125.262)"/><path class="a" d="M255.977,290.65a6.758,6.758,0,0,0-3.656-5.968c-3.915-2.253-6.411-1.049-7.681-.222-1.514.982-3.693,3.073-2.519,4.734,1.285,1.787,3.442,2.711,7.534,2.954A9.8,9.8,0,0,0,255.977,290.65Z" transform="translate(-241.638 -129.824)"/><path class="a" d="M266.929,275.426a.473.473,0,0,1-.355-.207c-.421-.657-3.228-3.176-6.086-2.526-.126-.332.126-.657.739-.975a8.253,8.253,0,0,1,6.152,3.036.428.428,0,0,1-.155.606A.48.48,0,0,1,266.929,275.426Z" transform="translate(-246.519 -126.772)"/><path class="a" d="M258.18,275.468a1.389,1.389,0,0,1,.842-.938,8.449,8.449,0,0,1,5.783,3.043.428.428,0,0,1-.155.606.473.473,0,0,1-.635-.14C263.609,277.4,260.942,275.017,258.18,275.468Z" transform="translate(-245.923 -127.508)"/><path class="a" d="M251.88,281.3a2.629,2.629,0,0,1,1.322-1.13,8.282,8.282,0,0,1,6.027,3.05.428.428,0,0,1-.148.606.472.472,0,0,1-.281.059.451.451,0,0,1-.355-.207C258,283,254.923,280.221,251.88,281.3Z" transform="translate(-244.277 -128.982)"/><path class="a" d="M261.664,281.065a.443.443,0,0,1-.354-.207c-.421-.65-3.169-3.109-5.99-2.541a1.581,1.581,0,0,1,.99-.968,8.479,8.479,0,0,1,5.783,3.043.436.436,0,0,1-.148.613A.473.473,0,0,1,261.664,281.065Z" transform="translate(-245.176 -128.245)"/><path class="c" d="M297.972,171.64c-4.616,2.814-20.481,10.274-27.1,15.444-1.913,1.477-2.681,3.6-2.644,8.353.052,6.448,3.242,28.664,3.242,28.664.591,1.293,2-.945,2-.945l26.537-28.406Z" transform="translate(-248.55 -100.611)"/><path class="f" d="M297.972,171.64c-4.616,2.814-20.481,10.274-27.1,15.444-1.913,1.477-2.681,3.6-2.644,8.353.052,6.448,3.242,28.664,3.242,28.664.591,1.293,2-.945,2-.945l26.537-28.406Z" transform="translate(-248.55 -100.611)"/><path class="f" d="M274.8,219.285c5.909-4.166,26.242-30.924,26.242-30.924h0c-2.267-2.267-2.954-9.52-2.954-9.52-1.2,2.674-.532,6.921.1,8.5-1.514,1.1-10.037,6.987-15.946,10.9a7.94,7.94,0,0,0-3.693,4.683C276.912,208.819,274.778,218.059,274.8,219.285Z" transform="translate(-250.268 -102.493)"/><path class="c" d="M297.842,171.64h0l30.282,9.432c-1.979,5.539-2.659,8.427-4.483,11.278s-3.848,5.909-12.2,9.173c-8.051,3.154-17.822,6.278-19.787,7.017-1.477.554-2.393,3.346-3.353,6.98-1,3.811-1.315,6.839-5.827,14.631-4.431,7.637-5.325,9.291-5.325,9.291s-5.85.111-9.417-3.6c0,0,7.548-26.818,9.085-31.633.857-2.688.99-4.129,4.646-6.854,3.139-2.341,16.987-11.079,16.987-11.079S293.868,178.863,297.842,171.64Z" transform="translate(-248.42 -100.611)"/><path class="f" d="M297.842,171.64h0l30.282,9.432c-1.979,5.539-2.659,8.427-4.483,11.278s-3.848,5.909-12.2,9.173c-8.051,3.154-17.822,6.278-19.787,7.017-1.477.554-2.393,3.346-3.353,6.98-1,3.811-1.315,6.839-5.827,14.631-4.431,7.637-5.325,9.291-5.325,9.291s-5.85.111-9.417-3.6c0,0,7.548-26.818,9.085-31.633.857-2.688.99-4.129,4.646-6.854,3.139-2.341,16.987-11.079,16.987-11.079S293.868,178.863,297.842,171.64Z" transform="translate(-248.42 -100.611)"/><path class="o" d="M303.126,111.476c-.583-.347-.842-4.239-.222-7.017s-.665-3.457-1.3-2.585a4.557,4.557,0,0,0-.783,1.617,7.74,7.74,0,0,0-3.619,1.928c-1.558,1.544-3.39,3.427-2.851,7.541a10.724,10.724,0,0,1-.281,4.092c-2.216,6.042-10.089,13.6-11.862,21.663-1.64,7.386,4.143,8.124,9.2,5.909,5.805-2.607,16.928-12.482,16.928-12.482l4.823-16.182c-3.065,0-5.347.495-9.417,4.431-.68.657-3.508,3.073-3.508,3.073a33.234,33.234,0,0,1,2.9-5.672" transform="translate(-252.131 -82.28)"/><path class="s" d="M300.1,145.61a35.193,35.193,0,0,1-2.954,5.355,10.554,10.554,0,0,0,3.789-4.431Z" transform="translate(-256.111 -93.806)"/><path class="a" d="M318.846,121.031c-3.324-.31-6.012.207-8.619,2.725-2.4,2.327-4.971,4.779-4.971,4.779-1.721,4-2.954,7.888-4.107,10.628a14.483,14.483,0,0,0,3.087,5.813l13.472-10.82Z" transform="translate(-257.157 -87.36)"/><path class="s" d="M305.739,119.342a2.509,2.509,0,0,0-.436-2.91l2.216-1.477v-.1h0l-8.863-.4a10.644,10.644,0,0,0,.081,1.9,13.885,13.885,0,0,1,.066,1.92l1.152.687a.864.864,0,0,0,.827,0l3.73-1.928C305.791,117.577,305.739,119.342,305.739,119.342Z" transform="translate(-256.502 -85.663)"/><path class="g" d="M298.194,101.728l15.51-7.319a.864.864,0,0,1,.871,0c.192.126.99.62,1.211.739a.827.827,0,0,1,.391.739l.5,8.028a1.972,1.972,0,0,1-1.064,1.758l-15.51,7.319a.916.916,0,0,1-.82,0c-.222-.126-1.086-.657-1.315-.805a.872.872,0,0,1-.34-.679c-.126-2.016-.377-6.012-.5-8.028a1.965,1.965,0,0,1,1.064-1.75Z" transform="translate(-256.106 -80.39)"/><path class="c" d="M316.556,104.613a1.086,1.086,0,0,1-.532.879l-14.676,6.935v.355l-.6-8.545a1.056,1.056,0,0,1,.524-.864l15.008-7.113h0l-.325.155Z" transform="translate(-257.052 -80.905)"/><path class="i" d="M316.556,104.613a1.086,1.086,0,0,1-.532.879l-14.676,6.935v.355l-.6-8.545a1.056,1.056,0,0,1,.524-.864l15.008-7.113h0l-.325.155Z" transform="translate(-257.052 -80.905)"/><path class="h" d="M317.137,104.815a1.093,1.093,0,0,1-.532.872l-15.015,7.1v-.355l14.676-6.935a1.086,1.086,0,0,0,.532-.879l-.576-8.191.325-.155Z" transform="translate(-257.272 -80.908)"/><path class="h" d="M299.331,115.8h-.044c-.222-.126-1.086-.657-1.315-.805a.871.871,0,0,1-.34-.679c-.126-2.016-.377-6.012-.5-8.028a1.935,1.935,0,0,1,.539-1.359l1.263.739a1.928,1.928,0,0,0-.547,1.366l.5,8.036A.82.82,0,0,0,299.331,115.8Z" transform="translate(-256.106 -83.172)"/><path class="m" d="M315.993,95.147a.923.923,0,0,0-.8,0l-15.51,7.327a1.654,1.654,0,0,0-.524.384l-1.27-.739a1.824,1.824,0,0,1,.532-.4l15.51-7.319a.894.894,0,0,1,.864,0A12.809,12.809,0,0,0,315.993,95.147Z" transform="translate(-256.304 -80.39)"/><path class="t" d="M300.173,112.286a.576.576,0,0,0-.3.524.222.222,0,0,0,.347.2.591.591,0,0,0,.3-.524.222.222,0,0,0-.347-.2Z" transform="translate(-256.822 -85.084)"/><path class="o" d="M310.916,113.767c.465-.384.635-1.588,1.425-2.674.916-1.248,3.028-.923,2.371.089s-.886,1.928-1.366,4.505-1.514,2.954-2.666,4.431v-6.211Z" transform="translate(-259.648 -84.571)"/><path class="u" d="M331.176,122.293c2.548.672,10.783,3.922,10.783,3.922,1.773,1.389,1.027,4.431,1,7.925-.687,25.333-5.074,36.619-5.074,36.619-9.912,2.171-28.014-4.129-31.382-11.692,3.028-4.6,5.067-11.478,5.5-24.979.318-10.023,4.875-13.051,7.829-13.029a48.62,48.62,0,0,1,11.352,1.233Z" transform="translate(-258.555 -87.388)"/><path class="h" d="M322.075,89.533a3.6,3.6,0,0,0,0-1.773c-.177-.628-.414-1.233-.569-1.861-.2-.849-.428-1.7-.68-2.533a12.178,12.178,0,0,1-.827-3.6,1.97,1.97,0,0,1,2.77-1.965,6.551,6.551,0,0,1,1.957,1.174,4.085,4.085,0,0,1,.739-2.548,2.363,2.363,0,0,1,2.386-.9,6.278,6.278,0,0,1,2.061,1.521,10.835,10.835,0,0,0,4.328,1.743,10.739,10.739,0,0,1,4.395,1.869,6.884,6.884,0,0,1,2.6,5.17c0,.739-.31,2.563-.428,3.538-.185,1.477-.34,2.954-.576,4.38-1.211,7.386-3.626,12.748-11.079,12.2-2.836-.214-6.795-1.972-7.534-5.059a10.782,10.782,0,0,1-.14-1.617c-.074-1.086-.1-2.216-.081-3.265A39.052,39.052,0,0,1,322.075,89.533Z" transform="translate(-262.084 -75.47)"/><path class="m" d="M346.61,89.52a2.753,2.753,0,0,1,2.216,1.92c.657,1.625.96,4.188-.635,8.124a33.566,33.566,0,0,1-3.922,7.031c-.657,1.115-1.706,3.213-1.706,3.213l.465-4.9.421-3.4s-2.1-.48-2.7-3.885c-.687-3.826.037-4.306.037-4.306Z" transform="translate(-267.43 -79.143)"/><path class="o" d="M337.387,100.839a.849.849,0,0,0,.805-.059c.68-.4,1-1.256,1.573-1.773a2.447,2.447,0,0,1,4.025.96c.953,2.437-1.44,5.643-3.183,6.308a2.632,2.632,0,0,1-3.493-1.6l-.99,10.34c-2.954,4.52-6.123,4.882-9.151,4.668s-2.8-3.028-.857-4.963l.259-3.368a19.781,19.781,0,0,1-4.151-.089c-2.216-.517-3.287-2.3-3.789-4.793a33.237,33.237,0,0,1-.355-8.767,36.515,36.515,0,0,1,1.7-7.947s1.285-1.167,5.015-1.226c2.637,0,5.96-.222,7.342,1.433a3.774,3.774,0,0,0,2.733,3.146C334.071,98.394,336.944,100.647,337.387,100.839Z" transform="translate(-261.546 -78.881)"/><path class="h" d="M331.562,87.755c-.547-1-2.489-1.477-3.612-1.315a26.2,26.2,0,0,0-4.55,1.4,10.71,10.71,0,0,1-3.412.569,6.153,6.153,0,0,1-3.176-.812,3.694,3.694,0,0,1-.155-5.717,1.521,1.521,0,0,0,.739,1.241,4.557,4.557,0,0,0,1.4.532,2.755,2.755,0,0,1-.923-2.592,3.627,3.627,0,0,1,2.12-2.43c.886-.251,1.913-.517,3.878,1.108S332.507,82.341,331.562,87.755Z" transform="translate(-260.876 -76.248)"/><path class="s" d="M329.323,118.083s5.1-.643,6.928-1.477a5.85,5.85,0,0,0,2.615-2.216,7.947,7.947,0,0,1-1.6,2.733c-1.4,1.551-8.051,2.275-8.051,2.275Z" transform="translate(-264.495 -85.645)"/><path class="h" d="M332.21,101.364a1.012,1.012,0,1,0,1.086-.975A1.034,1.034,0,0,0,332.21,101.364Z" transform="translate(-265.276 -81.984)"/><path class="h" d="M333.1,96.412l2.142,1.167a1.293,1.293,0,0,0-.524-1.714,1.2,1.2,0,0,0-1.618.547Z" transform="translate(-265.509 -80.769)"/><path class="s" d="M330.936,110.26l-4.335,1.285a2.216,2.216,0,0,0,2.762,1.61A2.363,2.363,0,0,0,330.936,110.26Z" transform="translate(-263.81 -84.565)"/><path class="n" d="M329.924,113.515a2.216,2.216,0,0,1-1.174,0,2.046,2.046,0,0,1,2.179-1.817,1.825,1.825,0,0,1,.569.126A2.327,2.327,0,0,1,329.924,113.515Z" transform="translate(-264.372 -84.94)"/><path class="h" d="M319.984,96.417l2.393-.739a1.189,1.189,0,0,0-1.477-.864A1.307,1.307,0,0,0,319.984,96.417Z" transform="translate(-262.068 -80.516)"/><path class="h" d="M321,100.5a1.019,1.019,0,0,0,.931,1.123A1.049,1.049,0,1,0,321,100.5Z" transform="translate(-262.344 -81.76)"/><path class="s" d="M326.681,99.25l-.731,6.825-3.42-1.455Z" transform="translate(-262.746 -81.687)"/><path class="h" d="M332.21,244.2v-34.92a8.124,8.124,0,0,1,3.634-6.3l33.7-19.447a2.4,2.4,0,0,0,0-4.151l-.827-.473,2.858-18.708a9.668,9.668,0,0,1,4.188-6.263l2.954-1.706c2-1.16,3.634-.214,3.634,2.1v16.8l-.074,44.212a8.051,8.051,0,0,1-3.634,6.293L335.807,246.3C333.85,247.453,332.21,246.507,332.21,244.2Z" transform="translate(-265.276 -95.408)"/><path class="m" d="M318.37,212.239V247.4a8.124,8.124,0,0,0,3.59,6.042H322l2.954,1.7a1.655,1.655,0,0,0,.273.148l.155.074h.044a1.767,1.767,0,0,0,.288.111,8.434,8.434,0,0,0,5.347.148,5.9,5.9,0,0,0,.635-.229c-1.75.739-3.1-.266-3.109-2.356h0V218.148a8.073,8.073,0,0,1,3.634-6.3l6.6-3.811,27.1-15.636a2.4,2.4,0,0,0,0-4.151l-3.006-1.736a8.073,8.073,0,0,0-7.268,0l-27.054,15.643-6.588,3.8a8.051,8.051,0,0,0-3.634,6.278Z" transform="translate(-261.658 -104.273)"/><path class="g" d="M328.595,226.291V261.2h0c0,2.09,1.359,3.073,3.109,2.356a5.9,5.9,0,0,1-.635.229,8.435,8.435,0,0,1-5.347-.148,1.767,1.767,0,0,1-.288-.111h-.044l-.155-.074a1.655,1.655,0,0,1-.273-.148l-2.954-1.7h-.037a8.124,8.124,0,0,1-3.59-6.042c0-.074,0-.162,0-.236v-34.95a7.445,7.445,0,0,1,1.064-3.582l10.229,5.909a7.386,7.386,0,0,0-1.078,3.582Z" transform="translate(-261.661 -112.416)"/><g transform="translate(54.218 38.797)"><path class="o" d="M357.74,163.776c-.982-7.7-1.8-11.7-2.814-16.862-2.356-11.98-1.8-15.422-10.466-17.674,0,0-3.139,2.762-3.272,9.853a18.238,18.238,0,0,0,1.477,8.3l3.693,17.726c-3.2,2.954-11.4,9.395-13.4,10.451-2.7,1.433-5.687,1.987-8.568,2.954-1.913.657-3.693,1.477-5.569,2.26a.739.739,0,0,0-.281.155.576.576,0,0,0-.118.613,1.115,1.115,0,0,0,.428.495,3.582,3.582,0,0,0,3.1.421,9.712,9.712,0,0,1,2.674-.635c.2,0,.414.059.332.31a1.8,1.8,0,0,1-.318.473,7.216,7.216,0,0,1-2.91,1.4,11.876,11.876,0,0,1-3.1.443,12.559,12.559,0,0,0-2.526.17,1.921,1.921,0,0,0-.739.318c-1.145.894.672,1.581,1.041,2.216.192.325.532.9.739,1.2a2.452,2.452,0,0,0,.886.561,12.112,12.112,0,0,1,1.189.857,5.783,5.783,0,0,0,3.272.849,18.349,18.349,0,0,0,2.91-.3,12.4,12.4,0,0,0,5.621-2.186,16.872,16.872,0,0,0,1.92-1.78c.517-.539,1.027-1.093,1.581-1.61a32.756,32.756,0,0,1,2.851-2.164,162.132,162.132,0,0,0,17.977-10.517C358.988,169.53,358.176,167.144,357.74,163.776Z" transform="translate(-314.994 -128.324)"/><path class="a" d="M353.155,128c6.138,1.994,7.807,4.587,8.39,6.551.849,2.829,1.477,6.056,2.5,10.835,1.477,7.149,1.743,9.978,1.743,9.978s-3.383,2.74-12.172,2.629l-2.954-11.625S346.382,136.2,353.155,128Z" transform="translate(-323.969 -128)"/></g></g></g><g transform="translate(267.726 134.012)"><g transform="translate(0 27.173)"><path class="c" d="M366.64,283.277l4.7-2.718-4.7-1.359Z" transform="translate(-361.928 -221.502)"/><path class="v" d="M366.64,283.277l4.7-2.718-4.7-1.359Z" transform="translate(-361.928 -221.502)"/><path class="w" d="M366.64,283.277l4.7-2.718-4.7-1.359Z" transform="translate(-361.928 -221.502)"/><path class="c" d="M365.806,282.8l-2.356-1.359V277.36l2.356,1.359Z" transform="translate(-361.094 -221.021)"/><path class="i" d="M365.806,282.8l-2.356-1.359V277.36l2.356,1.359Z" transform="translate(-361.094 -221.021)"/><path class="c" d="M398.56,290.674v4.335l34.049-19.654V271.02Z" transform="translate(-370.272 -219.364)"/><path class="v" d="M398.56,290.674v4.335l34.049-19.654V271.02Z" transform="translate(-370.272 -219.364)"/><path class="k" d="M398.56,290.674v4.335l34.049-19.654V271.02Z" transform="translate(-370.272 -219.364)"/><path class="c" d="M397.726,301.484l-2.356-1.359V295.79l2.356,1.359Z" transform="translate(-369.438 -225.839)"/><path class="i" d="M397.726,301.484l-2.356-1.359V295.79l2.356,1.359Z" transform="translate(-369.438 -225.839)"/><path class="c" d="M435.8,225.03,401.74,244.684V280.01L435.8,260.356Z" transform="translate(-371.104 -207.341)"/><path class="v" d="M435.8,225.03,401.74,244.684V280.01L435.8,260.356Z" transform="translate(-371.104 -207.341)"/><path class="c" d="M390.9,245.379,360.26,227.69v35.326L390.9,280.705Z" transform="translate(-360.26 -208.036)"/><path class="i" d="M390.9,245.379,360.26,227.69v35.326L390.9,280.705Z" transform="translate(-360.26 -208.036)"/><path class="c" d="M360.26,220.734l34.056-19.654,30.636,17.689L390.9,238.423Z" transform="translate(-360.26 -201.08)"/><path class="x" d="M360.26,220.734l34.056-19.654,30.636,17.689L390.9,238.423Z" transform="translate(-360.26 -201.08)"/><path class="c" d="M389.382,262.9,363.45,247.93v19.019l25.932,14.971Z" transform="translate(-361.094 -213.327)"/><path class="y" d="M389.382,262.9,363.45,247.93v19.019l25.932,14.971Z" transform="translate(-361.094 -213.327)"/><path class="k" d="M363.45,270.292l16.36-9.572,9.572,5.525v19.019Z" transform="translate(-361.094 -216.671)"/><path class="w" d="M363.45,266.949l16.36-9.572-16.36-9.446Z" transform="translate(-361.094 -213.327)"/><path class="c" d="M389.382,248.181,363.45,233.21v8.154l25.932,14.971Z" transform="translate(-361.094 -209.479)"/><path class="x" d="M389.382,248.181,363.45,233.21v8.154l25.932,14.971Z" transform="translate(-361.094 -209.479)"/><path class="m" d="M384.34,247.345c0,.377-1.123,0-2.5-.739l-4.395-2.6c-1.389-.8-2.511-1.75-2.511-2.127V241.2l9.41,5.436Z" transform="translate(-364.095 -211.568)"/></g><g class="z" transform="translate(38.975 39.013)"><path d="M421.745,227.583a11.685,11.685,0,0,0,6.4-1.743,3.8,3.8,0,0,0,0-6.987,12.622,12.622,0,0,0-12.8,0,3.8,3.8,0,0,0,0,6.987A11.692,11.692,0,0,0,421.745,227.583Z" transform="translate(-413.03 -217.11)"/></g><g transform="translate(35.796)"><path class="g" d="M417.08,222.012a2.326,2.326,0,0,1,.044-.451,6.81,6.81,0,0,1,2.762-4.121h5.783a6.81,6.81,0,0,1,2.762,4.121,2.346,2.346,0,0,1,.044.458v.074a2.91,2.91,0,0,1-1.662,2.216,8.9,8.9,0,0,1-8.058,0,2.91,2.91,0,0,1-1.662-2.216A.741.741,0,0,1,417.08,222.012Z" transform="translate(-410.91 -178.184)"/><path class="m" d="M426.168,217.079c1.514.879,1.514,2.29,0,3.169a6.071,6.071,0,0,1-5.48,0c-1.477-.879-1.477-2.29,0-3.169A6.071,6.071,0,0,1,426.168,217.079Z" transform="translate(-411.563 -177.919)"/><path class="h" d="M423.73,191.21H425.3v20.259h0a.355.355,0,0,1-.222.355,1.233,1.233,0,0,1-1.115,0,.354.354,0,0,1-.222-.354h0Z" transform="translate(-412.648 -171.327)"/><path class="c" d="M408.973,182.162h0l5.473-13.952h12.3l5.473,13.952h0c.775,2.216-.3,4.542-3.228,6.241-4.638,2.674-12.15,2.674-16.788,0C409.268,186.7,408.19,184.348,408.973,182.162Z" transform="translate(-408.726 -165.314)"/><path class="c" d="M427.017,170.523a9.838,9.838,0,0,1-8.9,0c-2.459-1.418-2.459-3.693,0-5.17a9.838,9.838,0,0,1,8.9,0C429.477,166.8,429.477,169.105,427.017,170.523Z" transform="translate(-410.698 -164.289)"/><path class="r" d="M427.017,170.523a9.838,9.838,0,0,1-8.9,0c-2.459-1.418-2.459-3.693,0-5.17a9.838,9.838,0,0,1,8.9,0C429.477,166.8,429.477,169.105,427.017,170.523Z" transform="translate(-410.698 -164.289)"/><path class="c" d="M422.822,171.133a8.361,8.361,0,0,0,4.092-.968,2.011,2.011,0,0,0,0-3.878,9.122,9.122,0,0,0-8.176,0,2.011,2.011,0,0,0,0,3.878A8.346,8.346,0,0,0,422.822,171.133Z" transform="translate(-410.957 -164.559)"/><path class="j" d="M422.822,171.133a8.361,8.361,0,0,0,4.092-.968,2.011,2.011,0,0,0,0-3.878,9.122,9.122,0,0,0-8.176,0,2.011,2.011,0,0,0,0,3.878A8.346,8.346,0,0,0,422.822,171.133Z" transform="translate(-410.957 -164.559)"/></g></g><g transform="translate(69.52 48.469)"><g transform="translate(116.186)"><path class="c" d="M252.785,48.6l27,15.584a1.211,1.211,0,0,1,.547.945V84.04a1.2,1.2,0,0,1-.547.938l-1.928,1.115a1.2,1.2,0,0,1-1.086,0L249.749,70.5a1.226,1.226,0,0,1-.539-.945V50.619a1.174,1.174,0,0,1,.547-.931L251.7,48.6A1.2,1.2,0,0,1,252.785,48.6Z" transform="translate(-249.21 -48.469)"/><path class="c" d="M277.3,86.425V67.473a1.211,1.211,0,0,0-.547-.945l-27-15.555c-.3-.177-.539-.037-.539.31V70.176a1.226,1.226,0,0,0,.539.945l27,15.6C277.055,86.9,277.3,86.757,277.3,86.425Z" transform="translate(-249.21 -49.103)"/><path class="c" d="M277.3,86.425V67.473a1.211,1.211,0,0,0-.547-.945l-27-15.555c-.3-.177-.539-.037-.539.31V70.176a1.226,1.226,0,0,0,.539.945l27,15.6C277.055,86.9,277.3,86.757,277.3,86.425Z" transform="translate(-249.21 -49.103)"/><path class="q" d="M286.5,91.78a1.233,1.233,0,0,0,1.093,0l1.943-1.115a1.2,1.2,0,0,0,.547-.938V70.8a1.042,1.042,0,0,0-.177-.554l-3.036,1.743a1.137,1.137,0,0,1,.162.539V91.484C287.047,91.787,286.818,91.964,286.5,91.78Z" transform="translate(-258.958 -54.163)"/><path class="aa" d="M249.22,50.524c.044-.273.266-.369.532-.214l27,15.584a1.13,1.13,0,0,1,.384.406l3.028-1.721a1.071,1.071,0,0,0-.377-.391l-27-15.584a1.2,1.2,0,0,0-1.086,0L249.8,49.682a1.2,1.2,0,0,0-.576.842Z" transform="translate(-249.213 -48.47)"/><path class="c" d="M291.763,86.77l2.954-1.684a.5.5,0,0,0,.1-.776L290.2,78.55l-2.954,1.7,4.609,5.761a.51.51,0,0,1-.1.761Z" transform="translate(-259.154 -56.332)"/><path class="aa" d="M291.763,86.77l2.954-1.684a.5.5,0,0,0,.1-.776L290.2,78.55l-2.954,1.7,4.609,5.761a.51.51,0,0,1-.1.761Z" transform="translate(-259.154 -56.332)"/><path class="c" d="M287.24,80.85l4.616,5.761a.487.487,0,0,1-.31.835l-4.306.465Z" transform="translate(-259.152 -56.934)"/><path class="a" d="M272.3,73.167c0,.739-.532.99-1.182.606l-15-8.641a2.607,2.607,0,0,1-1.182-2.009c0-.739.532-.99,1.182-.606l15,8.656A2.607,2.607,0,0,1,272.3,73.167Z" transform="translate(-250.708 -52.094)"/><path class="a" d="M275.665,82.982c0,.739-.532.99-1.182.606L256.122,73.011A2.607,2.607,0,0,1,254.94,71c0-.739.532-.99,1.182-.606l18.346,10.584a2.607,2.607,0,0,1,1.2,2Z" transform="translate(-250.708 -54.154)"/></g><g transform="translate(0 11.612)"><path class="c" d="M124.253,121.4l-2.954-5.451,2.334-6.736V105.08l-7.142,4.129v4.121l3.065,5.318a.436.436,0,0,0,.214.185h0Z" transform="translate(-98.328 -74.879)"/><path class="q" d="M124.253,121.4l-2.954-5.451,2.334-6.736V105.08l-7.142,4.129v4.121l3.065,5.318a.436.436,0,0,0,.214.185h0Z" transform="translate(-98.328 -74.879)"/><path class="c" d="M136.289,69.415a4.749,4.749,0,0,0-2.142-3.693l-1.743-1a4.712,4.712,0,0,0-4.284,0L94.042,84.371A4.727,4.727,0,0,0,91.9,88.064v20.887a4.727,4.727,0,0,0,2.142,3.693l1.743,1.012a4.757,4.757,0,0,0,4.284,0l14.506-8.442,3.065,5.3a.458.458,0,0,0,.827-.074l3.235-9.35,12.43-7.105a4.749,4.749,0,0,0,2.142-3.693Z" transform="translate(-91.9 -64.193)"/><path class="q" d="M91.9,116.669a4.727,4.727,0,0,0,2.142,3.693l1.743,1.012a4.808,4.808,0,0,0,3.915.17c-1,.384-1.773-.185-1.773-1.411V99.261a4.306,4.306,0,0,1,.628-2.1L92.528,93.67a4.358,4.358,0,0,0-.628,2.112Z" transform="translate(-91.9 -71.897)"/><path class="aa" d="M136.456,68.806c-.251-.908-1.078-1.2-2.068-.628L100.347,87.847a4.291,4.291,0,0,0-1.477,1.6L92.85,85.971a4.254,4.254,0,0,1,1.477-1.6L128.391,64.7a4.756,4.756,0,0,1,4.284,0l1.75,1.012a4.742,4.742,0,0,1,2.031,3.095Z" transform="translate(-92.148 -64.19)"/><path class="a" d="M110.828,103.981a6.3,6.3,0,0,0-2.858,4.948c0,1.824,1.278,2.563,2.858,1.647a6.3,6.3,0,0,0,2.858-4.949C113.687,103.8,112.424,103.065,110.828,103.981Z" transform="translate(-96.101 -74.489)"/><path class="a" d="M125.088,95.731a6.322,6.322,0,0,0-2.858,4.948c0,1.817,1.285,2.555,2.858,1.647a6.3,6.3,0,0,0,2.88-4.949C127.969,95.554,126.669,94.815,125.088,95.731Z" transform="translate(-99.829 -72.333)"/><path class="a" d="M139.358,87.472a6.322,6.322,0,0,0-2.858,4.948c0,1.824,1.278,2.563,2.858,1.654a6.322,6.322,0,0,0,2.858-4.949C142.217,87.3,140.939,86.564,139.358,87.472Z" transform="translate(-103.559 -70.175)"/></g></g></g></svg>